<?xml version="1.0" encoding="UTF-8" standalone="no"?>
<svg width="149px" height="92px" viewBox="0 0 149 92" version="1.1" xmlns="http://www.w3.org/2000/svg" xmlns:xlink="http://www.w3.org/1999/xlink">
    <!-- Generator: Sketch 3.7.2 (28276) - http://www.bohemiancoding.com/sketch -->
    <title>mochi-logo</title>
    <desc>Created with Sketch.</desc>
    <defs>
        <path d="M100.465939,192.642886 C96.1489729,192.103804 92.4559193,191.503992 89.3639422,190.898506 C76.8299326,188.444036 64.1567528,170.684406 78.071934,139.427958 C91.9871151,108.171509 131.774626,100.03723 148.450034,101.08765 C165.125441,102.138069 188.759873,107.521468 207.930027,129.186367 C227.10018,150.851266 223.490473,188.427141 201.758815,190.898506 C200.806728,191.006779 199.774771,191.120151 198.670726,191.237265 C214.913093,185.967777 210.46649,154.495335 194.210292,136.123606 C177.568988,117.316653 160.988773,114.515609 146.513118,113.603757 C132.037464,112.691904 98.2635963,118.973348 85.4190149,146.886366 C72.5744335,174.799383 81.2835249,187.703454 96.0760932,191.567127 C97.5654666,191.956136 99.0244285,192.313971 100.465939,192.642886 Z M101.097886,188.166017 C90.7730199,185.528797 81.8081111,172.827316 94.2397767,150.150832 C98.7480107,141.927404 105.607014,135.353012 111.654475,131.365865 C123.629561,123.47058 135.799259,123.325022 143.808458,123.825038 C155.862331,124.577564 172.946556,128.43426 186.803764,143.95511 C200.660971,159.47596 203.065289,184.237385 182.342883,188.166017 C150.43175,194.21585 111.422752,190.803238 101.097886,188.166017 Z" id="path-1"></path>
    </defs>
    <g id="Page-1" stroke="none" stroke-width="1" fill="none" fill-rule="evenodd">
        <g id="Artboard-6" transform="translate(-72.000000, -101.000000)">
            <mask id="mask-2" fill="white">
                <use xlink:href="#path-1"></use>
            </mask>
            <use id="mochi-logo" fill="#FFFFFF" xlink:href="#path-1"></use>
        </g>
    </g>
</svg>