<?xml version="1.0" encoding="UTF-8" standalone="no"?>
<svg width="150px" height="94px" viewBox="0 0 150 94" version="1.1" xmlns="http://www.w3.org/2000/svg" xmlns:xlink="http://www.w3.org/1999/xlink">
    <!-- Generator: Sketch 3.6.1 (26313) - http://www.bohemiancoding.com/sketch -->
    <title>mochi-orange</title>
    <desc>Created with Sketch.</desc>
    <defs>
        <path id="path-1" d="M69.0624172,93.7499289 C45.0475063,93.843149 28.3586666,91.911695 18.1816213,89.9187771 C5.64761166,87.4643072 -7.02556816,69.7046777 6.88961302,38.4482293 C20.8047942,7.19178082 60.5923051,-0.942498497 77.2677126,0.107920874 C93.9431202,1.15834025 117.577552,6.54173936 136.747706,28.2066384 C155.917859,49.8715374 152.308152,87.4474127 130.576494,89.9187771 C118.01728,91.3470343 91.5601471,93.6625982 69.0624172,93.7499289 Z"></path>
    </defs>
    <g id="Page-1" stroke="none" stroke-width="1" fill="none" fill-rule="evenodd">
        <g id="Mochi-cake" transform="translate(-924.000000, -302.000000)">
            <g id="mochi-orange" transform="translate(924.000000, 302.000000)">
                <mask id="mask-2" fill="white">
                    <use xlink:href="#path-1"></use>
                </mask>
                <use id="Path-55" fill="#FC7F46" xlink:href="#path-1"></use>
                <path d="M72.9692335,95.162187 C51.4789351,95.2394516 39.6863406,94.4510709 24.8937722,90.5873982 C10.1012039,86.7237255 1.39211262,73.8196548 14.236694,45.906637 C27.0812754,17.9936191 60.8551426,11.7121758 75.3307973,12.6240281 C89.8064521,13.5358803 106.386667,16.3369248 123.027971,35.1438774 C139.669275,53.95083 143.934823,86.4865546 126.299118,90.5873982 C108.663412,94.6882418 91.9596603,95.0939103 72.9692335,95.162187 Z" id="Path-55-Copy-3" fill="#FFFFFF" mask="url(#mask-2)"></path>
                <path d="M29.9155651,87.1862885 C19.590699,84.549068 10.6257902,71.8475876 23.0574558,49.1711031 C27.5656898,40.9476758 34.4246933,34.373283 40.4721537,30.3861363 C52.4472399,22.4908509 64.6169385,22.345293 72.6261374,22.8453092 C84.6800097,23.5978353 101.764235,27.4545313 115.621443,42.9753812 C129.47865,58.4962311 131.882968,83.2576566 111.160562,87.1862885 C79.249429,93.2361217 40.2404312,89.8235091 29.9155651,87.1862885 Z" id="Path-55-Copy-4" fill="#FC7F46" mask="url(#mask-2)"></path>
            </g>
        </g>
    </g>
</svg>